<svg id="Layer_1" data-name="Layer 1" xmlns="http://www.w3.org/2000/svg" viewBox="0 0 1853.51 436.96"><defs><style>.cls-1{fill:#353b41;}.cls-2{fill:#7a53b3;}</style></defs><title>Logo</title><path class="cls-1" d="M141.24,113.09h12.33L276.82,245.66V113.09h36.07V323.51h-12L177.31,190.34V323.51H141.24V183.43H171l-29.76-31.86Z"/><path class="cls-1" d="M358.58,113.09H494.76v33.67H394.65v54.71h78.46v33.66H394.65v54.72H494.76v33.66H358.58V175.91l36.07-29.15H358.58Z"/><path class="cls-1" d="M625.52,108.28a118.15,118.15,0,0,1,39.68,6.91,102.43,102.43,0,0,1,34.72,20.59q15.18,13.68,24.5,34.42t9.32,48.1q0,27.66-9.32,48.25a100.14,100.14,0,0,1-59.22,54.86,118.25,118.25,0,0,1-79.66,0,100.14,100.14,0,0,1-59.22-54.86Q517,246,517,218.3q0-23.45,6.92-42.39H564.2a68.57,68.57,0,0,0-8.87,18.94,81.67,81.67,0,0,0-3.16,23.45q0,18.64,6.32,32.32a69.62,69.62,0,0,0,16.68,23,67.59,67.59,0,0,0,23.45,13.83,82.06,82.06,0,0,0,53.66,0,65.86,65.86,0,0,0,23.44-13.83,70.71,70.71,0,0,0,16.54-23q6.32-13.68,6.31-32.32,0-18.33-6.31-32.16A70.35,70.35,0,0,0,675.72,163a66.16,66.16,0,0,0-23.44-13.83,82.35,82.35,0,0,0-26.76-4.51,80.87,80.87,0,0,0-32.46,6.77,65.59,65.59,0,0,0-26.16,20.29L542,145.25a97.3,97.3,0,0,1,37.73-27.8A118.34,118.34,0,0,1,625.52,108.28Z"/><path class="cls-1" d="M744.56,146.76V113.09H917.72v33.67ZM848.87,323.51H812.8V175.91l36.07-29.15Z"/><path class="cls-1" d="M951.38,113.09h136.18v33.67H987.46v54.71h78.46v33.66H987.46v54.72h100.1v33.66H951.38V175.91l36.08-29.15H951.38Z"/><path class="cls-1" d="M1193.67,113.09q20.74,0,35.48,7.21t23.29,18.79a62.49,62.49,0,0,1,11.28,25.55A61.39,61.39,0,0,1,1263,192,63.46,63.46,0,0,1,1250,216.8q-9.46,11.43-25.1,17.43l61,89.28h-43l-56.81-83.87h-22.85v83.87h-36.07V175.66l35.47-28.9h-35.47V113.09Zm-30.36,33.67V206h30.36q11.43,0,19.09-4.41a30,30,0,0,0,11.43-10.93,28.15,28.15,0,0,0,3.75-14.27,27.35,27.35,0,0,0-3.9-14.28,31.6,31.6,0,0,0-11.43-10.93q-7.52-4.4-18.94-4.4Z"/><path class="cls-1" d="M1355.7,113.09V323.51h-36.07V175.91l36.07-29.15h-36.07V113.09Z"/><path class="cls-1" d="M1567.93,306.68a96.81,96.81,0,0,1-27.51,15.93Q1525.84,328,1505.1,328q-22.85,0-40.88-6.76A100.49,100.49,0,0,1,1433,302.92a99.13,99.13,0,0,1-21.64-26.75,115.24,115.24,0,0,1-12-32.17,123.7,123.7,0,0,1-2.41-34.42,119.89,119.89,0,0,1,7.22-33.67h42.08a73.34,73.34,0,0,0-9.77,23.6,85.58,85.58,0,0,0-1.8,25.7,84.2,84.2,0,0,0,6,25.11,68.15,68.15,0,0,0,13.83,21.49,65.6,65.6,0,0,0,21.64,14.88q12.78,5.56,29.31,5.56a75.58,75.58,0,0,0,15-1.35,57.9,57.9,0,0,0,11.73-3.61,57.07,57.07,0,0,0,8.71-4.66,39,39,0,0,0,6-4.81Zm-146.4-161.43a99.52,99.52,0,0,1,34.42-26.6q20.9-10.07,49.15-10.07a101.33,101.33,0,0,1,33.07,5.56,106.26,106.26,0,0,1,29.76,15.78l-21,29.46a60.64,60.64,0,0,0-17.29-10.52,61.6,61.6,0,0,0-24.2-4.51q-20.14,0-34.57,8a65.5,65.5,0,0,0-23.14,20.89Z"/><path class="cls-1" d="M1646.69,113.09V323.51h-36.07V175.91l36.07-29.15h-36.07V113.09Z"/><path class="cls-1" d="M1680.36,146.76V113.09h173.15v33.67Zm104.31,176.75h-36.08V175.91l36.08-29.15Z"/><polygon class="cls-1" points="450.95 436.96 404.04 436.77 0 0 51.6 0 450.95 436.96"/><path class="cls-1" d="M1335.21,388v46.56h-6.08V413.46h-23.71v21.11h-6.08V388h6.08v20.44h23.71V388Z"/><path class="cls-1" d="M1354.85,432a22.2,22.2,0,0,1-8.45-8.48,25.72,25.72,0,0,1,0-24.52,22.14,22.14,0,0,1,8.45-8.48,24.64,24.64,0,0,1,23.71,0A22,22,0,0,1,1387,399a26.14,26.14,0,0,1,0,24.58,22.05,22.05,0,0,1-8.42,8.45,24.64,24.64,0,0,1-23.71,0Zm20.61-4.51a15.94,15.94,0,0,0,6.14-6.48,22.43,22.43,0,0,0,0-19.54,16.09,16.09,0,0,0-6.11-6.44,18.25,18.25,0,0,0-17.63,0,16,16,0,0,0-6.12,6.44,22.43,22.43,0,0,0,0,19.54,15.9,15.9,0,0,0,6.15,6.48,18.13,18.13,0,0,0,17.57,0Z"/><path class="cls-1" d="M1434.68,434.57h-6.08l-24.45-37.07v37.07h-6.08V388h6.08l24.45,37V388h6.08Z"/><path class="cls-1" d="M1454.32,432a22.2,22.2,0,0,1-8.45-8.48,25.72,25.72,0,0,1,0-24.52,22.14,22.14,0,0,1,8.45-8.48,24.64,24.64,0,0,1,23.71,0,22.05,22.05,0,0,1,8.42,8.45,26.14,26.14,0,0,1,0,24.58A22.12,22.12,0,0,1,1478,432a24.64,24.64,0,0,1-23.71,0Zm20.6-4.51a15.9,15.9,0,0,0,6.15-6.48,22.43,22.43,0,0,0,0-19.54A16.09,16.09,0,0,0,1475,395a18.27,18.27,0,0,0-17.64,0,16.09,16.09,0,0,0-6.11,6.44,22.43,22.43,0,0,0,0,19.54,15.9,15.9,0,0,0,6.15,6.48,18.11,18.11,0,0,0,17.56,0Z"/><path class="cls-1" d="M1522.05,434.57l-11.08-19h-7.35v19h-6.08V388h15a19.89,19.89,0,0,1,8.92,1.81,12.54,12.54,0,0,1,5.44,4.87,13.51,13.51,0,0,1-9.28,20.38l11.68,19.5Zm-18.43-23.91h9c3.29,0,5.77-.81,7.41-2.44a8.74,8.74,0,0,0,2.47-6.51,8.37,8.37,0,0,0-2.43-6.42q-2.44-2.27-7.45-2.27h-9Z"/><path class="cls-1" d="M1565.27,432a22.27,22.27,0,0,1-8.45-8.48,25.79,25.79,0,0,1,0-24.52,22.2,22.2,0,0,1,8.45-8.48,24.65,24.65,0,0,1,23.72,0,22.05,22.05,0,0,1,8.42,8.45,26.14,26.14,0,0,1,0,24.58A22.12,22.12,0,0,1,1589,432a24.65,24.65,0,0,1-23.72,0Zm20.61-4.51A15.9,15.9,0,0,0,1592,421a22.43,22.43,0,0,0,0-19.54,16.09,16.09,0,0,0-6.11-6.44,18.27,18.27,0,0,0-17.64,0,16.09,16.09,0,0,0-6.11,6.44,22.43,22.43,0,0,0,0,19.54,15.94,15.94,0,0,0,6.14,6.48,18.13,18.13,0,0,0,17.57,0Z"/><path class="cls-1" d="M1634.82,388V393h-20.25v15.69H1631v5h-16.44v21h-6.08V388Z"/><path class="cls-1" d="M1688.66,388V393H1676v41.61h-6.08V393h-12.76V388Z"/><path class="cls-1" d="M1720.66,434.57l-11.09-19h-7.35v19h-6.08V388h15a19.86,19.86,0,0,1,8.92,1.81,12.54,12.54,0,0,1,5.44,4.87,13.51,13.51,0,0,1-9.28,20.38l11.69,19.5Zm-18.44-23.91h9c3.3,0,5.76-.81,7.41-2.44a8.74,8.74,0,0,0,2.48-6.51,8.38,8.38,0,0,0-2.44-6.42q-2.44-2.27-7.45-2.27h-9Z"/><path class="cls-1" d="M1742.7,388v29.46q0,6.21,3,9.22c2,2,4.84,3,8.45,3s6.36-1,8.38-3,3-5.08,3-9.22V388h6.08v29.4a19,19,0,0,1-2.34,9.78,14.66,14.66,0,0,1-6.31,5.91,21.45,21.45,0,0,1-17.83,0,14.45,14.45,0,0,1-6.29-5.91,19.28,19.28,0,0,1-2.3-9.78V388Z"/><path class="cls-1" d="M1788.36,433.4a13.69,13.69,0,0,1-5.71-4.54,11.6,11.6,0,0,1-2.14-6.71H1787a8.52,8.52,0,0,0,2.7,5.51q2.37,2.23,6.92,2.24a10.18,10.18,0,0,0,6.85-2.17,7.05,7.05,0,0,0,2.5-5.58,6.32,6.32,0,0,0-1.47-4.34,9.32,9.32,0,0,0-3.67-2.54,55.73,55.73,0,0,0-6-1.87,52.46,52.46,0,0,1-7.38-2.41,11.86,11.86,0,0,1-4.74-3.77,11.07,11.07,0,0,1-2-6.92,12,12,0,0,1,1.93-6.74,12.64,12.64,0,0,1,5.45-4.55,19.31,19.31,0,0,1,8-1.6,16.89,16.89,0,0,1,10.72,3.27,12.14,12.14,0,0,1,4.71,8.69H1805a7.24,7.24,0,0,0-2.81-4.71,10,10,0,0,0-6.54-2,9.54,9.54,0,0,0-6.22,2,6.74,6.74,0,0,0-2.4,5.51,6,6,0,0,0,1.43,4.14,9.22,9.22,0,0,0,3.54,2.44c1.41.56,3.38,1.19,5.92,1.91a55.3,55.3,0,0,1,7.41,2.5,12.51,12.51,0,0,1,4.81,3.81,11,11,0,0,1,2,7,12.27,12.27,0,0,1-1.81,6.41,13.22,13.22,0,0,1-5.34,4.88,17.62,17.62,0,0,1-8.35,1.87A19.76,19.76,0,0,1,1788.36,433.4Z"/><path class="cls-1" d="M1849.71,388V393H1837v41.61h-6.08V393h-12.76V388Z"/><circle class="cls-2" cx="1628.65" cy="77.38" r="18.57"/></svg>